<svg width="1200" height="675" viewBox="0 0 1200 675" fill="none" xmlns="http://www.w3.org/2000/svg">
  <rect width="1200" height="675" fill="#0a1628"/>
  <defs>
    <linearGradient id="grad1" x1="0%" y1="0%" x2="100%" y2="100%">
      <stop offset="0%" style="stop-color:#00f0ff;stop-opacity:0.3" />
      <stop offset="100%" style="stop-color:#0066ff;stop-opacity:0.1" />
    </linearGradient>
  </defs>
  <rect width="1200" height="675" fill="url(#grad1)"/>
  <!-- Grid pattern -->
  <g opacity="0.1" stroke="#00f0ff" stroke-width="1">
    <line x1="0" y1="0" x2="0" y2="675"/><line x1="60" y1="0" x2="60" y2="675"/>
    <line x1="120" y1="0" x2="120" y2="675"/><line x1="180" y1="0" x2="180" y2="675"/>
    <line x1="240" y1="0" x2="240" y2="675"/><line x1="300" y1="0" x2="300" y2="675"/>
    <line x1="0" y1="0" x2="1200" y2="0"/><line x1="0" y1="60" x2="1200" y2="60"/>
    <line x1="0" y1="120" x2="1200" y2="120"/><line x1="0" y1="180" x2="1200" y2="180"/>
  </g>
  <!-- Warning icon -->
  <g transform="translate(520, 200)">
    <path d="M80 0 L160 140 L0 140 Z" stroke="#ff6b6b" stroke-width="4" fill="none"/>
    <text x="80" y="100" text-anchor="middle" fill="#ff6b6b" font-family="monospace" font-size="60" font-weight="bold">!</text>
  </g>
  <!-- 87% text -->
  <text x="600" y="420" text-anchor="middle" fill="#00f0ff" font-family="sans-serif" font-size="72" font-weight="bold">87%</text>
  <text x="600" y="480" text-anchor="middle" fill="#ffffff" font-family="sans-serif" font-size="24" opacity="0.7">AI Projects Fail</text>
  <!-- Decorative elements -->
  <circle cx="100" cy="100" r="40" stroke="#00f0ff" stroke-width="2" fill="none" opacity="0.3"/>
  <circle cx="1100" cy="575" r="60" stroke="#00f0ff" stroke-width="2" fill="none" opacity="0.2"/>
</svg>
